# xmcd
#
# Track frame offsets:
#	150
#	23641
#	47997
#	64472
#	86220
#	108818
#	133462
#	152645
#	170846
#	189921
#	215270
#	231224
#	247269
#	266709
#	290337
#	313620
#
# Disc length: 4334 seconds
#
# Revision: 1
# Processed by: cddbd v1.5.2PL0 Copyright (c) Steve Scherf et al.
# Submitted via: EZCDAudioConverter 2.1.7.1
#
DISCID=f210ec10
DTITLE=V/A - Liverpool International Festival Of Psychedelia 1/2
DYEAR=1900
DGENRE=
TTITLE0=Mugstar - Goat Head
TTITLE1=Tau - Venado Azul [Ceremony Version]
TTITLE2=Holydrug Couple - Dreamy
TTITLE3=Wolf People - All Returns (Part 2)
TTITLE4=Klaus Johann Grobe - Traumhaft
TTITLE5=Masahiko Sato - Take It Easy
TTITLE6=Vacant Lots - 6 AM
TTITLE7=Christian Bland and The Revelators - Flashing Signs
TTITLE8=Fumaça Preta - Eu Era Um Cão
TTITLE9=Lucid Dream - Devil Rides Out [The Time and Space Machine 12'' Remix]
TTITLE10=Night Beats - Messiah
TTITLE11=Lorelle Meets The Obsolete - Sealed Scene [Part Time Punks Session]
TTITLE12=White Manna - Kief Mountain
TTITLE13=Gnod - Breaking The Hex
TTITLE14=K-X-P - Space Precious Time
TTITLE15=Clinic - The Wizard
EXTD=
EXTT0=
EXTT1=
EXTT2=
EXTT3=
EXTT4=
EXTT5=
EXTT6=
EXTT7=
EXTT8=
EXTT9=
EXTT10=
EXTT11=
EXTT12=
EXTT13=
EXTT14=
EXTT15=
PLAYORDER=
